<svg xmlns="http://www.w3.org/2000/svg" width="88.536" height="78.113" viewBox="0 0 88.536 78.113"><defs><style>.a{fill:#00baf2;}.b{fill:#002970;}</style></defs><path class="a" d="M348.6,369.907H332.544v-9.663l8.275-8.1a1.817,1.817,0,1,0-2.545-2.594l-8.82,8.637a1.824,1.824,0,0,0-.544,1.3v10.425H306.9a1.817,1.817,0,0,0-1.817,1.817v9.07a1.815,1.815,0,0,0,1.817,1.813h3.276l2.877,42.841a1.816,1.816,0,0,0,1.812,1.694h26.8a1.816,1.816,0,0,0,1.812-1.694l2.871-42.841H348.6a1.816,1.816,0,0,0,1.817-1.813v-9.07a1.818,1.818,0,0,0-1.817-1.817m-8.63,53.605H316.565l-2.746-40.905h28.894Zm6.812-44.535H308.72v-5.44h38.065Z" transform="translate(-261.883 -349.029)"/><path class="a" d="M331.092,418.237a8.864,8.864,0,0,0,8.865-8.865H322.228a8.863,8.863,0,0,0,8.864,8.865" transform="translate(-264.707 -358.971)"/><path class="a" d="M341.249,401.536a1.582,1.582,0,1,0-1.583-1.583,1.584,1.584,0,0,0,1.583,1.583" transform="translate(-267.58 -357.159)"/><path class="a" d="M323.809,401.536a1.582,1.582,0,1,0-1.581-1.583,1.584,1.584,0,0,0,1.581,1.583" transform="translate(-264.707 -357.159)"/><path class="a" d="M256.441,404.191h37.923a1.813,1.813,0,0,0,1.791-2.11c-1.312-7.989-8.181-13.358-17.092-13.358h-7.326c-8.909,0-15.78,5.369-17.087,13.358a1.813,1.813,0,0,0,1.791,2.11m15.3-11.838h7.326c6.335,0,11.209,3.158,12.975,8.209h-33.27c1.76-5.051,6.637-8.209,12.97-8.209" transform="translate(-253.569 -355.569)"/><path class="a" d="M294.186,423.751H256.652a1.815,1.815,0,0,0-1.767,2.22A17.386,17.386,0,0,0,271.8,439.453c.176,0,.36,0,.54-.008l7.323-.228A17.4,17.4,0,0,0,295.951,426a1.822,1.822,0,0,0-1.766-2.25m-14.634,11.836-7.323.228a13.734,13.734,0,0,1-13.092-8.435H291.66a13.754,13.754,0,0,1-12.109,8.207" transform="translate(-253.604 -361.34)"/><path class="b" d="M295.1,413.823l-1.541-.628a12.292,12.292,0,0,0-8.475-.295l-2.093.691a8.573,8.573,0,0,1-5.434-.011l-2.172-.723a12.321,12.321,0,0,0-8.125.128l-1.825.675a8.644,8.644,0,0,1-5.98,0l-3.647-1.345a1.817,1.817,0,0,0-1.26,3.409l3.649,1.345a12.255,12.255,0,0,0,8.493,0l1.825-.673a8.7,8.7,0,0,1,5.722-.092l2.173.725a12.15,12.15,0,0,0,7.715.013l2.091-.689a8.644,8.644,0,0,1,5.971.211l1.548.628a1.815,1.815,0,0,0,1.365-3.364" transform="translate(-253.361 -359.437)"/></svg>