<svg id="Layer_1" data-name="Layer 1" height="70" width="150" xmlns="http://www.w3.org/2000/svg" viewBox="50 250 1024 500"><defs><style>.cls-1{fill:#128141;}</style></defs><path class="cls-1" d="M973.53,356.66a25.36,25.36,0,0,0-9.35-9.84,25,25,0,0,0-25.82,0,25.36,25.36,0,0,0-9.35,9.84,28.82,28.82,0,0,0,0,27.12,25.56,25.56,0,0,0,9.33,9.85,24.86,24.86,0,0,0,25.74,0,25.59,25.59,0,0,0,9.38-9.84,28.88,28.88,0,0,0,0-27.17Zm-3.77,24.7a21.38,21.38,0,0,1-7.64,8.26,20.54,20.54,0,0,1-21.75,0,21.3,21.3,0,0,1-7.64-8.29A23.75,23.75,0,0,1,930,370.2a23.43,23.43,0,0,1,2.82-11.34,21,21,0,0,1,7.74-8.16,20.42,20.42,0,0,1,10.67-3,20.06,20.06,0,0,1,10.83,3.09,21.2,21.2,0,0,1,7.66,8.23,24.37,24.37,0,0,1,0,22.3Z"/><path class="cls-1" d="M963.19,377.9a12.31,12.31,0,0,0-.86-4.89,6.32,6.32,0,0,0-3-3.11c2.64-1.41,4-3.41,4-6a8.2,8.2,0,0,0-3.18-6.85c-2.11-1.64-5.07-2.47-8.88-2.47H940.82v30h5v-13h6.08c1.92.94,3.29,1.35,4.12,2.17a5.45,5.45,0,0,1,1.23,4,46.31,46.31,0,0,0,.49,6.84h6.08V384a6.55,6.55,0,0,1-.51-2Q963.19,380.81,963.19,377.9Zm-6-9.6a9.49,9.49,0,0,1-5.14,1.28h-5.2v-10h5.73c2.52,0,4.26.45,5.22,1.24s1.44,2.15,1.44,4.05A3.87,3.87,0,0,1,957.16,368.3Z"/><path class="cls-1" d="M677.21,573.39l1.61-25.54V482.12s1.65-35-38.83-49.06c-30.92-10.76-61.8-4.71-76.8.84-9.67,3.57-14.82,13.17-14.82,21.91,0,3.77,1.35,12.9,10.42,20.71,33.81-19.93,75-13.88,75,5v7.83s-54.27-8.6-79.86,14.71c-7.72,7-11.28,15.06-11.28,28.27,0,41.09,44.81,45.06,56.25,45a76.2,76.2,0,0,0,34.36-8C640.74,584.44,677.21,573.39,677.21,573.39Zm-44.39-31.86C611,551.79,584.51,547.07,586,531.27c.44-4.47,1.89-6.38,5.51-8.93C603.37,514,632.82,519,632.82,519Z"/><path class="cls-1" d="M830.21,573.39l1.61-25.54V482.12s1.65-35-38.83-49.06c-30.92-10.76-61.8-4.71-76.8.84-9.67,3.57-14.82,13.17-14.82,21.91,0,3.77,1.35,12.9,10.42,20.71,33.81-19.93,75-13.88,75,5v7.83s-54.27-8.6-79.86,14.71c-7.72,7-11.28,15.06-11.28,28.27,0,41.09,44.81,45.06,56.25,45a76.2,76.2,0,0,0,34.36-8C793.74,584.44,830.21,573.39,830.21,573.39Zm-44.39-31.86C764,551.79,737.51,547.07,739,531.27c.44-4.47,1.89-6.38,5.51-8.93C756.37,514,785.82,519,785.82,519Z"/><path class="cls-1" d="M199.79,523.88q6.83-17.07,6.82-39.81c0-15.51-4-30.84-9.43-41.81-16.39-33-37.11-41.24-48.28-44.33-19.32-5.36-56.62-4.14-77-4.14-18.86,0-23.12,17-23.12,21.34l.11,141.27a22.08,22.08,0,0,0,21.75,22.27c31.1,0,61.62,1.4,78.11-3.59C180.31,565.52,195.24,535.25,199.79,523.88Zm-53.82,1c-8.7,9-20.7,12.74-35.44,12.74-3.22,0-16.09-.12-18.71-.12V434.58c3.11,0,15.31-.09,18.71-.09,14.36,0,26,3.29,35,12.27S159,465.82,159,484.15Q159,511.36,146,524.84Z"/><path class="cls-1" d="M337.47,447.16a63.28,63.28,0,0,0-21.4-12.75,79.45,79.45,0,0,0-27.41-4.54,86.17,86.17,0,0,0-26.82,4.25,63.75,63.75,0,0,0-23.16,13.34,65.32,65.32,0,0,0-16.12,22.86q-6,13.79-6,32.54,0,19.35,6,33.71a65.73,65.73,0,0,0,16.56,23.89,69.68,69.68,0,0,0,25.21,14.37,101.55,101.55,0,0,0,32,4.84,132.77,132.77,0,0,0,21.54-1.62,65,65,0,0,0,17-5,31.84,31.84,0,0,0,11.28-8.35,17.87,17.87,0,0,0,4.1-11.73,19,19,0,0,0-2.93-10.26,24.81,24.81,0,0,0-7.32-7.62,79.54,79.54,0,0,1-17.59,7.47A77.62,77.62,0,0,1,299.22,546q-13.49,0-23.75-5.13t-14.36-17.44a26.1,26.1,0,0,1-1.66-4.8l77.88-.92c7.75,0,11.08-2,13.94-5.25,3-3.44,5.11-11,5.11-17.31,0-9-1.66-20.67-5-28.3A57.75,57.75,0,0,0,337.47,447.16Zm-78.36,39.57c1.52-7.06,4.44-12.73,8.89-16.87q8.36-7.75,21-7.77c23.51,0,24.81,19.41,25.21,24.49Z"/><path class="cls-1" d="M520.83,398.76q-6-4.77-19.16-4.77a86.78,86.78,0,0,0-12.42.89q-6.15.9-9.43,1.5v72.2h-63V416.07q0-13.12-6-17.61T391.37,394a84.71,84.71,0,0,0-12.12.89q-6.15.9-9.43,1.5V557.8q0,12.54,5.54,17.31t19.6,4.77a103.43,103.43,0,0,0,12.58-.74,70.61,70.61,0,0,0,9.28-1.65V505.58h63V557.8q0,12.54,5.54,17.31t19.6,4.77a103.43,103.43,0,0,0,12.58-.74,70.61,70.61,0,0,0,9.28-1.65V416.67Q526.82,403.55,520.83,398.76Z"/><path class="cls-1" d="M922.92,471.58a15.22,15.22,0,0,0,11.18-4.27q4.3-4.26,4.32-14a33,33,0,0,0-1.49-9.92,59.23,59.23,0,0,0-3-7.78H892.82V415.75q0-12.5-5.81-17.23t-18.93-4.73a59.71,59.71,0,0,0-11.62,1.07q-5.37,1.06-8.64,2v137q0,26.55,14,38.29t39,11.75q20.26,0,28.46-6.87a23.28,23.28,0,0,0,6.41-26.69,28.22,28.22,0,0,0-4.47-7,46.65,46.65,0,0,1-8.65,2.59,45.85,45.85,0,0,1-9.54,1.07q-9.52,0-14.9-3.81t-5.36-12.36V471.58Z"/><path class="cls-1" d="M880.22,633.33a21.94,21.94,0,0,0-7.27-4.6,25.52,25.52,0,0,0-9.36-1.66,26.83,26.83,0,0,0-9.62,1.72,22.29,22.29,0,0,0-7.8,5,23.1,23.1,0,0,0-5.24,8.12A30.61,30.61,0,0,0,839,653.16a31.69,31.69,0,0,0,2,11.66,23,23,0,0,0,5.61,8.44,23.37,23.37,0,0,0,8.72,5.14,35.15,35.15,0,0,0,11.28,1.7,36.07,36.07,0,0,0,7-.64,24.43,24.43,0,0,0,5.67-1.76,11.72,11.72,0,0,0,3.79-2.67,5,5,0,0,0,1.39-3.37,5.31,5.31,0,0,0-3-4.81,26,26,0,0,1-6,3,23.38,23.38,0,0,1-8.23,1.39,19.32,19.32,0,0,1-11.07-2.94q-4.54-3.09-6-9.67l0,0h29.16a6.87,6.87,0,0,0,7.2-6,23.65,23.65,0,0,0-1.66-12.23A20.22,20.22,0,0,0,880.22,633.33ZM849.87,648.6c.4-4,1.68-7.24,3.94-9.54a13.15,13.15,0,0,1,9.78-3.95q5.77,0,8.88,3.36a15.48,15.48,0,0,1,4,10.11Z"/><path class="cls-1" d="M813.93,639.44a36.06,36.06,0,0,0,3.7-3.6,5,5,0,0,0,1.27-3.38,4.57,4.57,0,0,0-2-3.81,9.1,9.1,0,0,0-5.34-1.58l-21.78,19v-33a4.75,4.75,0,0,0-1.44-3.91,7,7,0,0,0-4.49-1.16,13.24,13.24,0,0,0-3,.31c-.92.21-1.62.39-2.11.53v64.2A4.69,4.69,0,0,0,780.3,677a7.32,7.32,0,0,0,4.54,1.16,14.55,14.55,0,0,0,2.91-.27,10.78,10.78,0,0,0,2.07-.58v-21L808.22,674a18.45,18.45,0,0,0,3.54,3.18,6.82,6.82,0,0,0,3.76,1,5.42,5.42,0,0,0,4.28-1.74,8.44,8.44,0,0,0,1.85-4.81l-21.79-19.89Z"/><path class="cls-1" d="M69,670q6.73,0,9.94-2.78A9,9,0,0,0,82.15,660a8.19,8.19,0,0,0-2.46-6.2q-2.46-2.34-7.8-4l-8-2.46a44.13,44.13,0,0,1-6.78-2.72,20.8,20.8,0,0,1-5.18-3.64,13.92,13.92,0,0,1-3.27-4.91,17.94,17.94,0,0,1-1.12-6.57,16,16,0,0,1,6.26-13.31Q60,611.4,70.71,611.4a44.89,44.89,0,0,1,8.13.69A28.74,28.74,0,0,1,85.3,614a13.34,13.34,0,0,1,4.28,2.88,5.19,5.19,0,0,1,1.55,3.58,5.56,5.56,0,0,1-.91,3.16A8.15,8.15,0,0,1,88,625.83a24.17,24.17,0,0,0-7-3.48,30.22,30.22,0,0,0-9.57-1.44c-3.92,0-6.94.78-9.08,2.35a7.43,7.43,0,0,0-3.21,6.31,6.58,6.58,0,0,0,2.25,5.18q2.23,2,7.37,3.47L75,640q9,2.67,13.94,7.32t5,12.66a18.57,18.57,0,0,1-1.65,7.86A17.34,17.34,0,0,1,87.49,674a21.74,21.74,0,0,1-7.74,4,37,37,0,0,1-10.53,1.39,43.67,43.67,0,0,1-9-.86,32,32,0,0,1-7-2.24,13.94,13.94,0,0,1-4.54-3.21,5.72,5.72,0,0,1-1.6-3.85,5.37,5.37,0,0,1,1.28-3.63,8.21,8.21,0,0,1,3-2.24,29.31,29.31,0,0,0,7,4.49A24.37,24.37,0,0,0,69,670Z"/><path class="cls-1" d="M358.51,664.08a13.33,13.33,0,0,1-5.35,11.23q-5.34,4.05-15.49,4.06a43.84,43.84,0,0,1-7.7-.64,25.1,25.1,0,0,1-6-1.82,11.56,11.56,0,0,1-3.9-2.78,5.29,5.29,0,0,1-1.39-3.53,5.87,5.87,0,0,1,.81-3,6.26,6.26,0,0,1,2.19-2.24,42.8,42.8,0,0,0,6.84,3.52,23.17,23.17,0,0,0,9,1.61q4.82,0,7.38-1.66a5.32,5.32,0,0,0,2.56-4.76,5.51,5.51,0,0,0-1.76-4.27,11.92,11.92,0,0,0-5.18-2.46l-7.27-1.92q-7.28-1.92-10.69-5.24t-3.42-9.08a13.6,13.6,0,0,1,1.28-5.83,13.15,13.15,0,0,1,3.8-4.7,18.66,18.66,0,0,1,6.25-3.1,29.73,29.73,0,0,1,8.55-1.12,38.42,38.42,0,0,1,7,.59,24.5,24.5,0,0,1,5.45,1.6,10,10,0,0,1,3.58,2.51,4.83,4.83,0,0,1,1.28,3.21,5.63,5.63,0,0,1-.74,2.94,6.06,6.06,0,0,1-1.93,2,34.59,34.59,0,0,0-5.71-2.56,23.54,23.54,0,0,0-8.18-1.39,13.65,13.65,0,0,0-7.05,1.55,4.83,4.83,0,0,0-2.57,4.33,4.67,4.67,0,0,0,1.44,3.52,10.93,10.93,0,0,0,5,2.25l6.2,1.6c5.42,1.43,9.4,3.35,12,5.77S358.51,660,358.51,664.08Z"/><path class="cls-1" d="M426.54,668.59a10.85,10.85,0,0,0,6.33,1.59,15.42,15.42,0,0,0,3.86-.53,18.6,18.6,0,0,0,3.54-1.27,11,11,0,0,1,1.34,1.9,5.11,5.11,0,0,1,.59,2.55,5.28,5.28,0,0,1-2.84,4.55q-2.83,1.8-8.63,1.8-8.06,0-12.82-3.55c-3.18-2.36-4.77-6.26-4.09-11.7V614.49c-.18-.14.53-.32,1.46-.53a13.62,13.62,0,0,1,3-.32,7.19,7.19,0,0,1,4.55,1.17c1,.77,1.45,2.08,2,3.91v10.86h16.1c.28,0,.55.65.8,1.43a7.82,7.82,0,0,1,.38,2.43c0,3-1.33,4.55-4,6.14H424.82v23.61C424.29,665.73,425,667.53,426.54,668.59Z"/><path class="cls-1" d="M510.9,652.86a31.59,31.59,0,0,1-1.81,11,24,24,0,0,1-5.08,8.34,22.17,22.17,0,0,1-8,5.29,30.27,30.27,0,0,1-20.95,0,22.17,22.17,0,0,1-8-5.29,24.1,24.1,0,0,1-5.08-8.34,34.36,34.36,0,0,1,0-22,23.64,23.64,0,0,1,5.14-8.34,22.55,22.55,0,0,1,8-5.29,29.66,29.66,0,0,1,20.73,0,22.4,22.4,0,0,1,8,5.34,24.35,24.35,0,0,1,5.13,8.34A31.13,31.13,0,0,1,510.9,652.86Zm-25.32-17.52a12.42,12.42,0,0,0-10.16,4.59q-3.74,4.61-3.74,12.93t3.64,12.88q3.63,4.54,10.26,4.54t10.26-4.54q3.63-4.54,3.63-12.88c0-5.48-1.23-9.78-3.69-12.87A12.3,12.3,0,0,0,485.58,635.34Z"/><path class="cls-1" d="M606.23,661.2a7.09,7.09,0,0,1-2.35,1.28,10.06,10.06,0,0,1-3.42.54,9.88,9.88,0,0,1-3.9-.7,4.1,4.1,0,0,1-2.3-2.19q-4.92-11.32-8.49-20.09c-2.39-5.84-5.72-13.46-5.72-13.46h-.4q-.31,7.32-.57,13.43t-.56,12q-.32,5.85-.67,11.93T577.07,677a14.34,14.34,0,0,1-2.1.56,14.05,14.05,0,0,1-2.73.26q-5.55,0-5.55-4.53c0-.89,0-2.47.15-4.73s.24-4.95.41-8.08.38-6.56.62-10.34.49-7.59.77-11.47.55-7.68.82-11.42.55-7.18.82-10.34a10.48,10.48,0,0,1,2.73-1.74,10.61,10.61,0,0,1,4.68-.93,10.06,10.06,0,0,1,5.25,1.18A8.19,8.19,0,0,1,586,619q1.63,3.6,3.39,7.77c1.17,2.78,2.33,5.59,3.5,8.44s2.3,5.67,3.4,8.48,2.16,5.45,3.18,7.92h.34q2.13-5.6,4.31-11.09c1.46-3.65,2.88-7.17,4.26-10.53l3.92-9.52q1.86-4.49,3.42-8.07a18.32,18.32,0,0,1,3-1,15.68,15.68,0,0,1,3.7-.44A10.87,10.87,0,0,1,628,612a5.23,5.23,0,0,1,2.41,3.24q.44,2,1,6.67t1.12,10.7q.56,6,1.12,12.83t1,13.11q.43,6.33.78,11.65t.45,8.34a9.62,9.62,0,0,1-2.64,1.18,12.34,12.34,0,0,1-3.3.39,7.93,7.93,0,0,1-4.09-1c-1.16-.67-1.81-1.94-2-3.8q-.45-7.62-.84-15t-.73-14q-.33-6.62-.61-12.21c-.19-3.74-.36-6.91-.51-9.53h-.58s-3.19,9.3-5.51,14.92S609.86,652.37,606.23,661.2Z"/><path class="cls-1" d="M736.82,677.4a11.32,11.32,0,0,1-2.07.58,15.33,15.33,0,0,1-2.9.26,7.29,7.29,0,0,1-4.55-1.16,4.67,4.67,0,0,1-1.48-3.91v-34.7a7.73,7.73,0,0,1,1.06-4.28,10.88,10.88,0,0,1,3.38-3.12,28.89,28.89,0,0,1,7.83-3.17,40.38,40.38,0,0,1,10.47-1.27q9.3,0,9.31,5.29a6.7,6.7,0,0,1-.43,2.38,11.07,11.07,0,0,1-1,2q-1.05-.21-2.64-.42a25.92,25.92,0,0,0-3.39-.21,30.92,30.92,0,0,0-7.72.9,24.65,24.65,0,0,0-5.92,2.27Z"/><path class="cls-1" d="M921.91,668.59a10.85,10.85,0,0,0,6.33,1.59,15.54,15.54,0,0,0,3.86-.53,18.6,18.6,0,0,0,3.54-1.27,11,11,0,0,1,1.34,1.9,5.22,5.22,0,0,1,.59,2.55,5.3,5.3,0,0,1-2.84,4.55c-1.9,1.2-4.77,1.8-8.64,1.8q-8,0-12.81-3.55c-3.19-2.36-4.78-6.26-4.46-11.7V614.49a7.86,7.86,0,0,1,1.83-.53,13.6,13.6,0,0,1,3-.32,7.22,7.22,0,0,1,4.56,1.17c1,.77,1.45,2.08,1.61,3.91v10.86h16.46c.29,0,.55.65.81,1.43a7.82,7.82,0,0,1,.37,2.43c0,3-1.32,4.55-4,6.14H919.82v23.61C919.66,665.73,920.41,667.53,921.91,668.59Z"/><path class="cls-1" d="M155.32,633.33a21.94,21.94,0,0,0-7.27-4.6,25.5,25.5,0,0,0-9.35-1.66,26.85,26.85,0,0,0-9.63,1.72,22.38,22.38,0,0,0-7.8,5,23.1,23.1,0,0,0-5.24,8.12,30.61,30.61,0,0,0-1.92,11.28,31.69,31.69,0,0,0,2,11.66,23,23,0,0,0,5.61,8.44,23.45,23.45,0,0,0,8.72,5.14,35.19,35.19,0,0,0,11.28,1.7,36.07,36.07,0,0,0,7-.64,24.43,24.43,0,0,0,5.67-1.76,11.62,11.62,0,0,0,3.79-2.67,5,5,0,0,0,1.39-3.37,5.31,5.31,0,0,0-3-4.81,26,26,0,0,1-6,3,23.34,23.34,0,0,1-8.23,1.39,19.32,19.32,0,0,1-11.07-2.94q-4.55-3.09-6-9.67l0,0h29.16a6.87,6.87,0,0,0,7.2-6A23.77,23.77,0,0,0,160,640.33,20.39,20.39,0,0,0,155.32,633.33ZM125,648.6c.4-4,1.68-7.24,3.94-9.54a13.16,13.16,0,0,1,9.79-3.95q5.76,0,8.87,3.36a15.48,15.48,0,0,1,4,10.11Z"/><path class="cls-1" d="M222.12,633.33a21.94,21.94,0,0,0-7.27-4.6,25.52,25.52,0,0,0-9.36-1.66,26.83,26.83,0,0,0-9.62,1.72,22.38,22.38,0,0,0-7.8,5,23.1,23.1,0,0,0-5.24,8.12,30.61,30.61,0,0,0-1.92,11.28,31.69,31.69,0,0,0,2,11.66,23,23,0,0,0,5.61,8.44,23.37,23.37,0,0,0,8.72,5.14,35.19,35.19,0,0,0,11.28,1.7,36.07,36.07,0,0,0,7-.64,24.43,24.43,0,0,0,5.67-1.76A11.62,11.62,0,0,0,225,675a5,5,0,0,0,1.39-3.37,5.31,5.31,0,0,0-3-4.81,26,26,0,0,1-6,3,23.34,23.34,0,0,1-8.23,1.39,19.32,19.32,0,0,1-11.07-2.94q-4.55-3.09-6-9.67l0,0h29.16a6.87,6.87,0,0,0,7.2-6,23.65,23.65,0,0,0-1.66-12.23A20.22,20.22,0,0,0,222.12,633.33ZM191.77,648.6c.4-4,1.68-7.24,3.94-9.54a13.15,13.15,0,0,1,9.78-3.95q5.77,0,8.88,3.36a15.48,15.48,0,0,1,4,10.11Z"/><path class="cls-1" d="M289.85,607.72a13.05,13.05,0,0,0-2.94.32c-.91.21-1.61.38-2.09.52v19.35s-3.89-1.34-5.84-1.82a26.06,26.06,0,0,0-6.25-.72,31.32,31.32,0,0,0-10.11,1.6,22.13,22.13,0,0,0-8.24,5,23.4,23.4,0,0,0-5.58,8.62A34.09,34.09,0,0,0,246.75,653a33.66,33.66,0,0,0,2,12.11,21.73,21.73,0,0,0,14.49,13.49,39.1,39.1,0,0,0,11.49,1.6,20.13,20.13,0,0,0,9.65-2.7,4,4,0,0,0,1.23,2,7.65,7.65,0,0,0,4.75,1.21,13.84,13.84,0,0,0,3.1-.33,3.62,3.62,0,0,0,1.37-.55V669.31l1-.64V612.75a4.64,4.64,0,0,0-1.47-3.88A7.3,7.3,0,0,0,289.85,607.72Zm-5,59c-1.13,1.64-4.8,3.45-9.28,3.45q-7.05,0-11.26-4.06t-4.21-13a25,25,0,0,1,1.17-8.16,15.77,15.77,0,0,1,3.2-5.55,11.73,11.73,0,0,1,4.75-3.14,17.67,17.67,0,0,1,5.92-1,16.47,16.47,0,0,1,5.44.85,19.47,19.47,0,0,1,4.27,2Z"/><path class="cls-1" d="M701.82,645.11q0-10.12-6.41-14.85t-17.24-4.72a50.11,50.11,0,0,0-8.85.76,27.49,27.49,0,0,0-7.45,2.39,7.84,7.84,0,0,0-3.09,2.21,5.19,5.19,0,0,0-1,3.26,5.61,5.61,0,0,0,.81,3,8.41,8.41,0,0,0,2,2.27,52.82,52.82,0,0,1,7.68-2.91,31.42,31.42,0,0,1,9-1.28c4,0,7,.78,9.26,2.33s3.32,4,3.32,7.45v3.24s-10.18-1.24-16.12-.66-10.5,2.19-13.66,4.79-4.75,6.37-4.75,11.27q0,8.26,6.09,12.5c4,2.82,9.51,4.38,17.61,3.92a40.66,40.66,0,0,0,11.21-2.7c.16.18.24.44.42.59a7.72,7.72,0,0,0,4.8,1.23,13.38,13.38,0,0,0,3.12-.34,2.58,2.58,0,0,0,1.28-.56v-21l2,.1Zm-12,21.91a19.68,19.68,0,0,1-9.87,3.63c-4.44.38-7.28-.36-9.08-1.68a6.53,6.53,0,0,1-2.69-5.55,5.74,5.74,0,0,1,2.48-5.11,14.38,14.38,0,0,1,7.43-2.21,46.14,46.14,0,0,1,11.73,1Z"/></svg>